<?xml version="1.0" encoding="UTF-8"?>
<svg width="61px" height="77px" viewBox="0 0 61 77" version="1.1" xmlns="http://www.w3.org/2000/svg" xmlns:xlink="http://www.w3.org/1999/xlink">
    <!-- Generator: Sketch 51.1 (57501) - http://www.bohemiancoding.com/sketch -->
    <title>81323</title>
    <desc>Created with Sketch.</desc>
    <defs></defs>
    <g id="Page-1" stroke="none" stroke-width="1" fill="none" fill-rule="evenodd">
        <g id="-" transform="translate(-194.000000, -57.000000)" fill="#000000" fill-rule="nonzero">
            <g id="81323" transform="translate(194.000000, 57.000000)">
                <path d="M60.4441693,32.2620355 C60.7262943,30.4555094 60.9023047,28.4747286 60.946625,26.2536242 C60.9296276,16.729737 56.4243646,13.3597411 55.5574974,11.7798747 C56.8342083,4.56373695 55.3460625,1.28135073 54.6539349,0.157697286 C52.1011484,-0.759229645 45.7723984,2.52428184 42.3144609,4.8357286 C36.6765677,3.16568058 24.7620286,3.32868267 20.2939375,5.26798956 C12.0500417,-0.705538622 7.6898125,0.205279749 7.6898125,0.205279749 C7.6898125,0.205279749 4.87094531,5.32039457 6.9446276,12.8035407 C4.23219271,16.301334 2.21045573,18.7743361 2.21045573,25.3339645 C2.21045573,26.9049896 2.30688021,28.3895303 2.4705,29.8178079 C4.80645052,42.2467975 14.538651,47.6088267 24.0984948,48.5334697 C22.6599115,49.6396013 20.932849,51.7329081 20.6939323,54.1584885 C18.8863307,55.3411378 15.2503177,55.7320856 12.4228724,54.8325198 C8.46120833,53.5657975 6.9446276,45.6269207 1.01190104,46.7594154 C-0.271799479,47.0024718 -0.0166796875,47.8592777 1.09498177,48.5897328 C2.90242448,49.7760793 4.60470573,51.2508142 5.91684115,54.4065282 C6.92461198,56.8293758 9.04420313,61.1552004 15.745625,61.1552004 C18.4059557,61.1552004 20.2693151,60.8370731 20.2693151,60.8370731 C20.2693151,60.8370731 20.3199896,67.0108977 20.3199896,69.4187954 C20.3199896,72.1898309 16.6244063,72.9678685 16.6244063,74.2972839 C16.6244063,74.8259958 17.8475833,74.8761503 18.8305729,74.8761503 C20.7732005,74.8761503 24.8150859,73.2387349 24.8150859,70.3585491 C24.8150859,68.069929 24.8511458,60.3789311 24.8511458,59.0319937 C24.8511458,56.0891148 26.4096641,55.1520939 26.4096641,55.1520939 C26.4096641,55.1520939 26.6004479,70.8618622 26.0346094,72.9680292 C25.3710755,75.4448894 24.169026,75.0930042 24.169026,76.1952777 C24.169026,77.8402484 29.0282161,76.5974781 30.6399505,72.9968038 C31.8867969,70.1844551 31.3284245,54.7786681 31.3284245,54.7786681 L32.6283281,54.7500543 C32.6283281,54.7500543 32.6432604,61.805762 32.5984635,65.0291524 C32.5516016,68.3678017 32.2111771,72.5884948 34.1708021,74.5805282 C35.4570443,75.8906534 39.3975807,78.1895616 39.3975807,76.0886994 C39.3975807,74.871167 36.638125,73.865023 36.638125,70.5664008 L36.638125,55.3708768 C38.314513,55.3708768 38.660974,60.3657495 38.660974,60.3657495 L39.2652552,69.6454551 C39.2652552,69.6454551 38.8639896,73.0316868 42.8801406,74.4448539 C44.2979141,74.9473633 47.3309167,75.0840021 47.4730911,74.2405386 C47.6155833,73.3949854 43.8210339,72.1446597 43.784974,69.5237662 C43.7654349,67.9275031 43.8556641,66.993215 43.8556641,60.0500334 C43.8556641,53.1107098 42.9344688,50.5436681 39.7243438,48.4979436 C49.0333568,47.5311837 58.7023333,43.3241545 60.4441693,32.2620355 Z" id="Shape"></path>
            </g>
        </g>
    </g>
</svg>