<?xml version="1.0" encoding="UTF-8"?>
<svg width="83px" height="83px" viewBox="0 0 83 83" version="1.1" xmlns="http://www.w3.org/2000/svg" xmlns:xlink="http://www.w3.org/1999/xlink">
    <!-- Generator: Sketch 51.1 (57501) - http://www.bohemiancoding.com/sketch -->
    <title>Group 6</title>
    <desc>Created with Sketch.</desc>
    <defs></defs>
    <g id="Page-1" stroke="none" stroke-width="1" fill="none" fill-rule="evenodd">
        <g id="-" transform="translate(-170.000000, -47.000000)" fill-rule="nonzero">
            <g id="Group-6" transform="translate(170.000000, 47.000000)">
                <rect id="Rectangle-2-Copy" fill="#000000" x="0" y="0" width="83" height="83" rx="2"></rect>
                <g id="81323" transform="translate(27.000000, 23.000000)" fill="#FFFFFF">
                    <path d="M29.7266406,15.921524 C29.8653906,15.0299916 29.9519531,14.0524635 29.97375,12.956334 C29.9653906,8.25623382 27.7496875,6.593119 27.3233594,5.81344468 C27.95125,2.25223382 27.219375,0.632354906 26.8789844,0.0778246347 C25.6235156,-0.37468476 22.5110156,1.24574948 20.8103906,2.38646347 C18.0376563,1.56228392 12.1780469,1.64272651 9.980625,2.59978706 C5.92625,-0.348187891 3.781875,0.101306889 3.781875,0.101306889 C3.781875,0.101306889 2.39554688,2.62564927 3.41539063,6.31863048 C2.08140625,8.0448142 1.08710938,9.26525678 1.08710938,12.502476 C1.08710938,13.2777871 1.13453125,14.0104175 1.215,14.7152818 C2.36382813,20.8490689 7.15015625,23.4952651 11.8517188,23.9515825 C11.1442188,24.4974656 10.2948438,25.5305261 10.1773438,26.7275658 C9.28835938,27.3112109 7.50015625,27.5041461 6.10960938,27.0602046 C4.16125,26.4350689 3.41539063,22.5171816 0.49765625,23.0760752 C-0.133671875,23.1960251 -0.008203125,23.6188643 0.538515625,23.9793486 C1.42742188,24.5648184 2.26460938,25.2926096 2.90992188,26.8499749 C3.40554688,28.045666 4.44796875,30.1804885 7.74375,30.1804885 C9.05210938,30.1804885 9.96851563,30.0234906 9.96851563,30.0234906 C9.96851563,30.0234906 9.9934375,33.0703132 9.9934375,34.2586263 C9.9934375,35.6261503 8.1759375,36.0101169 8.1759375,36.6661921 C8.1759375,36.9271148 8.7775,36.9518664 9.2609375,36.9518664 C10.2163281,36.9518664 12.2041406,36.1437912 12.2041406,34.7224008 C12.2041406,33.592952 12.221875,29.7973946 12.221875,29.1326722 C12.221875,27.6803424 12.9883594,27.2179165 12.9883594,27.2179165 C12.9883594,27.2179165 13.0821875,34.9707891 12.8039063,36.0101962 C12.4775781,37.2325428 11.8864063,37.0588852 11.8864063,37.6028643 C11.8864063,38.4146681 14.2761719,37.8013528 15.0688281,36.0243967 C15.6820313,34.6364843 15.4074219,27.0336284 15.4074219,27.0336284 L16.0467188,27.0195073 C16.0467188,27.0195073 16.0540625,30.5015449 16.0320313,32.092309 C16.0089844,33.7399541 15.8415625,35.8228935 16.8053125,36.8059749 C17.4378906,37.4525303 19.3758594,38.5870564 19.3758594,37.5502672 C19.3758594,36.9494071 18.01875,36.4528685 18.01875,34.824977 L18.01875,27.3258873 C18.8432031,27.3258873 19.0135938,29.7908894 19.0135938,29.7908894 L19.3107813,34.3704843 C19.3107813,34.3704843 19.1134375,36.0416117 21.0885938,36.7390188 C21.7858594,36.9870104 23.2775,37.0544426 23.3474219,36.6381879 C23.4175,36.2209019 21.5513281,35.603858 21.5335938,34.3104301 C21.5239844,33.5226639 21.5683594,33.0615866 21.5683594,29.6350814 C21.5683594,26.2104802 21.1153125,24.9436284 19.5365625,23.9340501 C24.1147656,23.4569478 28.87,21.3807516 29.7266406,15.921524 Z" id="Shape"></path>
                </g>
            </g>
        </g>
    </g>
</svg>