<?xml version="1.0" encoding="UTF-8"?>
<svg width="83px" height="83px" viewBox="0 0 83 83" version="1.1" xmlns="http://www.w3.org/2000/svg" xmlns:xlink="http://www.w3.org/1999/xlink">
    <!-- Generator: Sketch 51.1 (57501) - http://www.bohemiancoding.com/sketch -->
    <title>Group 4</title>
    <desc>Created with Sketch.</desc>
    <defs></defs>
    <g id="Page-1" stroke="none" stroke-width="1" fill="none" fill-rule="evenodd">
        <g id="--copy" transform="translate(-183.000000, -47.000000)" fill-rule="nonzero">
            <g id="Group-4" transform="translate(183.000000, 47.000000)">
                <g id="81323-copy" transform="translate(27.000000, 23.000000)" fill="#333333">
                    <path d="M29.7266406,15.5025365 C28.87,20.8181002 24.1147656,22.8396597 19.5365625,23.3042067 C21.1153125,24.2872171 21.5683594,25.5207307 21.5683594,28.8552109 C21.5683594,32.1915449 21.5239844,32.6404885 21.5335938,33.407524 C21.5513281,34.6669144 23.4175,35.2677203 23.3474219,35.6740251 C23.2775,36.0793257 21.7858594,36.0136681 21.0885938,35.7722025 C19.1134375,35.0931482 19.3107813,33.4659979 19.3107813,33.4659979 L19.0135938,29.0069186 C19.0135938,29.0069186 18.8432031,26.606785 18.01875,26.606785 L18.01875,33.9085303 C18.01875,35.4935825 19.3758594,35.9770543 19.3758594,36.5621023 C19.3758594,37.5716075 17.4378906,36.4669374 16.8053125,35.8373967 C15.8415625,34.8801858 16.0089844,32.8520605 16.0320313,31.2477745 C16.0540625,29.6988727 16.0467188,26.3084676 16.0467188,26.3084676 L15.4074219,26.3222171 C15.4074219,26.3222171 15.6820313,33.7249979 15.0688281,35.0763862 C14.2761719,36.8065804 11.8864063,37.4037557 11.8864063,36.6133152 C11.8864063,36.0836514 12.4775781,36.252739 12.8039063,35.0625595 C13.0821875,34.0505052 12.9883594,26.5016555 12.9883594,26.5016555 C12.9883594,26.5016555 12.221875,26.9519123 12.221875,28.366023 C12.221875,29.0132526 12.2041406,32.7089269 12.2041406,33.8086534 C12.2041406,35.1926388 10.2163281,35.9794489 9.2609375,35.9794489 C8.7775,35.9794489 8.1759375,35.9553486 8.1759375,35.7012923 C8.1759375,35.0624823 9.9934375,34.68862 9.9934375,33.3570835 C9.9934375,32.2000418 9.96851563,29.2333987 9.96851563,29.2333987 C9.96851563,29.2333987 9.05210938,29.3862651 7.74375,29.3862651 C4.44796875,29.3862651 3.40554688,27.3076221 2.90992188,26.1433967 C2.26460938,24.6270146 1.42742188,23.9183758 0.538515625,23.3483132 C-0.008203125,22.9973152 -0.133671875,22.5856033 0.49765625,22.46881 C3.41539063,21.9246242 4.16125,25.7394092 6.10960938,26.3480939 C7.50015625,26.7803528 9.28835938,26.5924948 10.1773438,26.0242088 C10.2948438,24.8586701 11.1442188,23.8527954 11.8517188,23.3212777 C7.15015625,22.8769687 2.36382813,20.3004092 1.215,14.3280376 C1.13453125,13.6417223 1.08710938,12.9283716 1.08710938,12.1734635 C1.08710938,9.02143424 2.08140625,7.83310856 3.41539063,6.15235073 C2.39554688,2.55655324 3.781875,0.0986409186 3.781875,0.0986409186 C3.781875,0.0986409186 5.92625,-0.339025052 9.980625,2.53137161 C12.1780469,1.59949687 18.0376563,1.52117119 20.8103906,2.3236618 C22.5110156,1.2129666 25.6235156,-0.364824635 26.8789844,0.075776618 C27.219375,0.615713987 27.95125,2.19296451 27.3233594,5.66045929 C27.7496875,6.41961587 29.9653906,8.03896451 29.97375,12.6153779 C29.9519531,13.6826618 29.8653906,14.6344656 29.7266406,15.5025365 Z M24.8263173,17.7857167 C25.1846187,17.0725924 25.364005,16.2362453 25.364005,15.2775338 C25.364005,13.9699294 24.9774941,12.8590352 24.2039423,11.9439925 C23.4304494,11.0290644 22.382459,10.5714286 21.0599122,10.5714286 C20.6000214,10.5714286 19.5074494,10.6856658 17.7809006,10.9145409 C16.9852053,11.0345015 16.1052938,11.0942528 15.1411072,11.0942528 C14.1772152,11.0942528 13.2971859,11.0343298 12.5013728,10.9145409 C10.7975565,10.6857231 9.70463115,10.5714286 9.2224201,10.5714286 C7.89981437,10.5714286 6.85182394,11.0288354 6.07833104,11.9439925 C5.30477924,12.8586345 4.91803279,13.9699294 4.91803279,15.2775338 C4.91803279,16.2360736 5.09741907,17.0719629 5.45607384,17.7857167 C5.81478751,18.4994706 6.2687302,19.0599542 6.81813748,19.4689419 C7.36754477,19.8775289 8.05122675,20.2042154 8.86930121,20.4496309 C9.68767013,20.6946457 10.4722937,20.8552418 11.2232897,20.9312473 C11.9742268,21.0075963 12.8094979,21.045599 13.7286317,21.045599 L16.553465,21.045599 C17.4728933,21.045599 18.3076932,21.0075963 19.0590426,20.9312473 C19.8101564,20.8552418 20.5944266,20.6946457 21.4130311,20.4496309 C22.2312233,20.2042154 22.9149053,19.8775289 23.4643126,19.4689419 C24.0134843,19.0600115 24.4675448,18.4994706 24.8263173,17.7857167 Z" id="Combined-Shape"></path>
                    <path d="M10.8112774,12.6556192 C10.4693481,12.285035 10.0631671,12.0997715 9.5922634,12.0997715 C9.12124191,12.0997715 8.71500207,12.2852639 8.37313163,12.6556192 C8.03143787,13.0258028 7.79027345,13.4398842 7.6502273,13.8969477 C7.50988669,14.3549269 7.43992251,14.8014594 7.43992251,15.2374611 C7.43992251,15.6730049 7.51006337,16.1195947 7.6502273,16.5775167 C7.79009678,17.0348663 8.03114341,17.4487188 8.37313163,17.8188452 C8.71517874,18.1894294 9.12124191,18.3747502 9.5922634,18.3747502 C10.0631671,18.3747502 10.4695247,18.189086 10.8112774,17.8188452 C11.1530889,17.4486615 11.3941356,17.0348663 11.5341817,16.5775167 C11.6743456,16.1195947 11.7444865,15.6730049 11.7444865,15.2374611 C11.7444865,14.8018601 11.6745223,14.3549269 11.5341817,13.8969477 C11.3940767,13.4400559 11.1532656,13.0261462 10.8112774,12.6556192 Z" id="Shape"></path>
                    <path d="M21.5724518,12.6556192 C21.2306402,12.285035 20.8243415,12.0997715 20.3535556,12.0997715 C19.8829463,12.0997715 19.476412,12.2852639 19.1344238,12.6556192 C18.7926123,13.0258028 18.5516245,13.4398842 18.4117551,13.8969477 C18.2712967,14.3549269 18.2011558,14.8014594 18.2011558,15.2374611 C18.2011558,15.6730049 18.2712967,16.1195947 18.4117551,16.5775167 C18.5516245,17.0348663 18.7926712,17.4487188 19.1344238,17.8188452 C19.4764709,18.1894294 19.8829463,18.3747502 20.3535556,18.3747502 C20.8243415,18.3747502 21.2306991,18.189086 21.5724518,17.8188452 C21.9140867,17.4486615 22.1552511,17.0348663 22.2955328,16.5775167 C22.4356378,16.1195947 22.5057198,15.6730049 22.5057198,15.2374611 C22.5057198,14.8018601 22.4356378,14.3549269 22.2955328,13.8969477 C22.15531,13.4400559 21.9140867,13.0261462 21.5724518,12.6556192 Z" id="Shape"></path>
                </g>
                <rect id="Rectangle-2-Copy" stroke="#333333" stroke-width="1.5" x="0.75" y="0.75" width="81.5" height="81.5" rx="2"></rect>
            </g>
        </g>
    </g>
</svg>