<?xml version="1.0" encoding="UTF-8"?>
<svg width="61px" height="77px" viewBox="0 0 61 77" version="1.1" xmlns="http://www.w3.org/2000/svg" xmlns:xlink="http://www.w3.org/1999/xlink">
    <!-- Generator: Sketch 51.1 (57501) - http://www.bohemiancoding.com/sketch -->
    <title>81323 copy</title>
    <desc>Created with Sketch.</desc>
    <defs></defs>
    <g id="Page-1" stroke="none" stroke-width="1" fill="none" fill-rule="evenodd">
        <g id="--copy" transform="translate(-194.000000, -58.000000)" fill="#000000" fill-rule="nonzero">
            <g id="81323-copy" transform="translate(194.000000, 58.000000)">
                <path d="M60.4441693,32.2620355 C58.7023333,43.3241545 49.0333568,47.5311837 39.7243438,48.4979436 C42.9344688,50.5436681 43.8556641,53.1107098 43.8556641,60.0500334 C43.8556641,66.993215 43.7654349,67.9275031 43.784974,69.5237662 C43.8210339,72.1446597 47.6155833,73.3949854 47.4730911,74.2405386 C47.3309167,75.0840021 44.2979141,74.9473633 42.8801406,74.4448539 C38.8639896,73.0316868 39.2652552,69.6454551 39.2652552,69.6454551 L38.660974,60.3657495 C38.660974,60.3657495 38.314513,55.3708768 36.638125,55.3708768 L36.638125,70.5664008 C36.638125,73.865023 39.3975807,74.871167 39.3975807,76.0886994 C39.3975807,78.1895616 35.4570443,75.8906534 34.1708021,74.5805282 C32.2111771,72.5884948 32.5516016,68.3678017 32.5984635,65.0291524 C32.6432604,61.805762 32.6283281,54.7500543 32.6283281,54.7500543 L31.3284245,54.7786681 C31.3284245,54.7786681 31.8867969,70.1844551 30.6399505,72.9968038 C29.0282161,76.5974781 24.169026,77.8402484 24.169026,76.1952777 C24.169026,75.0930042 25.3710755,75.4448894 26.0346094,72.9680292 C26.6004479,70.8618622 26.4096641,55.1520939 26.4096641,55.1520939 C26.4096641,55.1520939 24.8511458,56.0891148 24.8511458,59.0319937 C24.8511458,60.3789311 24.8150859,68.069929 24.8150859,70.3585491 C24.8150859,73.2387349 20.7732005,74.8761503 18.8305729,74.8761503 C17.8475833,74.8761503 16.6244063,74.8259958 16.6244063,74.2972839 C16.6244063,72.9678685 20.3199896,72.1898309 20.3199896,69.4187954 C20.3199896,67.0108977 20.2693151,60.8370731 20.2693151,60.8370731 C20.2693151,60.8370731 18.4059557,61.1552004 15.745625,61.1552004 C9.04420313,61.1552004 6.92461198,56.8293758 5.91684115,54.4065282 C4.60470573,51.2508142 2.90242448,49.7760793 1.09498177,48.5897328 C-0.0166796875,47.8592777 -0.271799479,47.0024718 1.01190104,46.7594154 C6.9446276,45.6269207 8.46120833,53.5657975 12.4228724,54.8325198 C15.2503177,55.7320856 18.8863307,55.3411378 20.6939323,54.1584885 C20.932849,51.7329081 22.6599115,49.6396013 24.0984948,48.5334697 C14.538651,47.6088267 4.80645052,42.2467975 2.4705,29.8178079 C2.30688021,28.3895303 2.21045573,26.9049896 2.21045573,25.3339645 C2.21045573,18.7743361 4.23219271,16.301334 6.9446276,12.8035407 C4.87094531,5.32039457 7.6898125,0.205279749 7.6898125,0.205279749 C7.6898125,0.205279749 12.0500417,-0.705538622 20.2939375,5.26798956 C24.7620286,3.32868267 36.6765677,3.16568058 42.3144609,4.8357286 C45.7723984,2.52428184 52.1011484,-0.759229645 54.6539349,0.157697286 C55.3460625,1.28135073 56.8342083,4.56373695 55.5574974,11.7798747 C56.4243646,13.3597411 60.9296276,16.729737 60.946625,26.2536242 C60.9023047,28.4747286 60.7262943,30.4555094 60.4441693,32.2620355 Z M50.4801786,37.0135186 C51.2087248,35.5294491 51.5734769,33.7889429 51.5734769,31.7937866 C51.5734769,29.0725558 50.7875714,26.7606948 49.2146828,24.8564169 C47.6419139,22.9523772 45.511,22 42.8218214,22 C41.8867101,22 39.6651471,22.237737 36.1544979,22.7140447 C34.536584,22.9636923 32.7474307,23.0880397 30.7869181,23.0880397 C28.8270042,23.0880397 27.0376113,22.963335 25.419458,22.7140447 C21.9550315,22.2378561 19.73275,22 18.7522542,22 C16.0629559,22 13.932042,22.9519007 12.3592731,24.8564169 C10.7863845,26.759861 10,29.0725558 10,31.7937866 C10,33.7885856 10.3647521,35.528139 11.0940168,37.0135186 C11.8234013,38.4988983 12.7464181,39.6653102 13.8635462,40.5164467 C14.9806744,41.3667494 16.3708277,42.0466104 18.0342458,42.55734 C19.6982626,43.0672357 21.2936639,43.4014491 22.8206891,43.5596228 C24.3475945,43.7185112 26.045979,43.797598 27.9148845,43.797598 L33.6587122,43.797598 C35.5282164,43.797598 37.2256429,43.7185112 38.7533866,43.5596228 C40.2806513,43.4014491 41.875334,43.0672357 43.5398298,42.55734 C45.2034874,42.0466104 46.5936408,41.3667494 47.7107689,40.5164467 C48.8274181,39.6654293 49.7506744,38.4988983 50.4801786,37.0135186 Z" id="Combined-Shape"></path>
                <path d="M21.9829307,26.3373697 C21.2876744,25.5661538 20.4617731,25.1806055 19.5042689,25.1806055 C18.5465252,25.1806055 17.7205042,25.5666303 17.0253676,26.3373697 C16.3305903,27.1077519 15.8402227,27.9694888 15.5554622,28.9206749 C15.2701029,29.8737667 15.1278424,30.8030372 15.1278424,31.7103921 C15.1278424,32.616794 15.2704622,33.5461836 15.5554622,34.4991563 C15.8398634,35.450938 16.3299916,36.3121985 17.0253676,37.0824615 C17.7208634,37.8536774 18.5465252,38.2393449 19.5042689,38.2393449 C20.4617731,38.2393449 21.2880336,37.8529628 21.9829307,37.0824615 C22.6779475,36.3120794 23.1680756,35.450938 23.4528361,34.4991563 C23.7378361,33.5461836 23.8804559,32.616794 23.8804559,31.7103921 C23.8804559,30.803871 23.7381954,29.8737667 23.4528361,28.9206749 C23.1679559,27.9698462 22.6783067,27.1084665 21.9829307,26.3373697 Z" id="Shape"></path>
                <path d="M43.8639853,26.3373697 C43.1689685,25.5661538 42.3428277,25.1806055 41.385563,25.1806055 C40.4286576,25.1806055 39.6020378,25.5666303 38.9066618,26.3373697 C38.211645,27.1077519 37.7216366,27.9694888 37.4372353,28.9206749 C37.1516366,29.8737667 37.0090168,30.8030372 37.0090168,31.7103921 C37.0090168,32.616794 37.1516366,33.5461836 37.4372353,34.4991563 C37.7216366,35.450938 38.2117647,36.3121985 38.9066618,37.0824615 C39.6021576,37.8536774 40.4286576,38.2393449 41.385563,38.2393449 C42.3428277,38.2393449 43.1690882,37.8529628 43.8639853,37.0824615 C44.5586429,36.3120794 45.0490105,35.450938 45.33425,34.4991563 C45.6191303,33.5461836 45.7616303,32.616794 45.7616303,31.7103921 C45.7616303,30.803871 45.6191303,29.8737667 45.33425,28.9206749 C45.0491303,27.9698462 44.5586429,27.1084665 43.8639853,26.3373697 Z" id="Shape"></path>
            </g>
        </g>
    </g>
</svg>