<?xml version="1.0" encoding="UTF-8"?>
<svg width="97px" height="69px" viewBox="0 0 97 69" version="1.1" xmlns="http://www.w3.org/2000/svg" xmlns:xlink="http://www.w3.org/1999/xlink">
    <!-- Generator: Sketch 51.1 (57501) - http://www.bohemiancoding.com/sketch -->
    <title>Group 2</title>
    <desc>Created with Sketch.</desc>
    <defs></defs>
    <g id="Page-1" stroke="none" stroke-width="1" fill="none" fill-rule="evenodd">
        <g id="-" transform="translate(-451.000000, -65.000000)" fill-rule="nonzero">
            <g id="Group-2" transform="translate(451.000000, 65.000000)">
                <rect id="Rectangle" fill="#000000" x="0" y="1.02985075" width="94.9361702" height="66.9402985" rx="8.228"></rect>
                <g id="131155-copy" fill="#FFFFFF">
                    <g id="Group" transform="translate(16.510638, 32.955224)">
                        <path d="M61.2204149,20.1129851 C60.8396383,20.1129851 60.4588617,19.9739552 60.1616702,19.692806 L42.3487553,3.01540299 C41.7265106,2.43456716 41.6955532,1.4551791 42.2806489,0.834179104 C42.8657447,0.207 43.8409043,0.17919403 44.4693404,0.766208955 L62.2822553,17.4436119 C62.9045,18.0244478 62.9354574,19.0038358 62.3503617,19.6248358 C62.043883,19.9492388 61.6352447,20.1129851 61.2204149,20.1129851 Z" id="Shape"></path>
                        <path d="M1.76044681,20.1129851 C1.34871277,20.1129851 0.936978723,19.9492388 0.6305,19.6248358 C0.0454042553,19.0038358 0.0763617021,18.0244478 0.698606383,17.4436119 L18.5177128,0.766208955 C19.1430532,0.185373134 20.1244043,0.210089552 20.7064043,0.834179104 C21.2915,1.4551791 21.2605426,2.43456716 20.6382979,3.01540299 L2.81919149,19.692806 C2.522,19.9739552 2.1412234,20.1129851 1.76044681,20.1129851 Z" id="Shape"></path>
                    </g>
                    <path d="M88.2658723,68.5746716 L7.7393617,68.5746716 C3.47342553,68.5746716 0,65.1112836 0,60.850791 L0,8.18319403 C0,3.92270149 3.47342553,0.459313433 7.7393617,0.459313433 L88.2658723,0.459313433 C92.5318085,0.459313433 96.005234,3.92270149 96.005234,8.18319403 L96.005234,60.850791 C96.005234,65.1112836 92.5318085,68.5746716 88.2658723,68.5746716 Z M7.7393617,3.54886567 C5.17918085,3.54886567 3.09574468,5.62813433 3.09574468,8.18319403 L3.09574468,60.850791 C3.09574468,63.4058507 5.17918085,65.4851194 7.7393617,65.4851194 L88.2658723,65.4851194 C90.8260532,65.4851194 92.9094894,63.4058507 92.9094894,60.850791 L92.9094894,8.18319403 C92.9094894,5.62813433 90.8260532,3.54886567 88.2658723,3.54886567 L7.7393617,3.54886567 Z" id="Shape"></path>
                    <path d="M48.002617,42.2794925 C45.9439468,42.2794925 43.8852766,41.5967015 42.3188298,40.234209 L2.56946809,5.62813433 C1.92555319,5.06892537 1.85744681,4.09262687 2.4177766,3.44691045 C2.98429787,2.80428358 3.95945745,2.74558209 4.60337234,3.29861194 L44.352734,37.901597 C46.3309149,39.6224776 49.6743191,39.6224776 51.6494043,37.901597 L91.349234,3.35422388 C91.9900532,2.79501493 92.9652128,2.85680597 93.5348298,3.50252239 C94.0951596,4.14823881 94.0301489,5.12144776 93.386234,5.68374627 L53.6864043,40.2311194 C52.1168617,41.5967015 50.0612872,42.2794925 48.002617,42.2794925 Z" id="Shape"></path>
                </g>
            </g>
        </g>
    </g>
</svg>