<?xml version="1.0" encoding="UTF-8"?>
<svg width="83px" height="83px" viewBox="0 0 83 83" version="1.1" xmlns="http://www.w3.org/2000/svg" xmlns:xlink="http://www.w3.org/1999/xlink">
    <!-- Generator: Sketch 51.1 (57501) - http://www.bohemiancoding.com/sketch -->
    <title>Group 5 Copy</title>
    <desc>Created with Sketch.</desc>
    <defs></defs>
    <g id="Page-1" stroke="none" stroke-width="1" fill="none" fill-rule="evenodd">
        <g id="-" transform="translate(-50.000000, -47.000000)" fill-rule="nonzero">
            <g id="Group-5-Copy" transform="translate(50.000000, 47.000000)">
                <rect id="Rectangle-2" fill="#000000" x="0" y="0" width="83" height="83" rx="2"></rect>
                <g id="34227" transform="translate(26.000000, 27.000000)" fill="#FFFFFF">
                    <path d="M30.9364896,18.3890534 L30.9364896,29.9679612 L24.3057981,29.9679612 L24.3057981,19.1645388 C24.3057981,16.4506311 23.3467401,14.5984951 20.9466497,14.5984951 C19.1144849,14.5984951 18.0241624,15.846699 17.5444896,17.0541262 C17.3695661,17.4857767 17.3245406,18.0865777 17.3245406,18.690801 L17.3245406,29.9679612 L10.6916195,29.9679612 C10.6916195,29.9679612 10.7809513,11.6705097 10.6916195,9.77475728 L17.3238933,9.77475728 L17.3238933,12.6370631 C17.3104432,12.6584709 17.2929652,12.6815534 17.2803063,12.7023058 L17.3238933,12.7023058 L17.3238933,12.6370631 C18.2050557,11.2631068 19.7787193,9.30036408 23.3010673,9.30036408 C27.6650186,9.30029126 30.9364896,12.1864806 30.9364896,18.3890534 Z M3.75330162,0.040631068 C1.48418794,0.040631068 0,1.54740291 0,3.52885922 C0,5.46713592 1.44124826,7.01963592 3.6652645,7.01963592 L3.70957077,7.01963592 C6.02263109,7.01963592 7.46114617,5.46742718 7.46114617,3.52885922 C7.41755916,1.54740291 6.02263109,0.040631068 3.75330162,0.040631068 Z M0.393937355,29.9679612 L7.02434107,29.9679612 L7.02434107,9.77475728 L0.393937355,9.77475728 L0.393937355,29.9679612 Z" id="LinkedIn"></path>
                </g>
            </g>
        </g>
    </g>
</svg>
