<?xml version="1.0" encoding="UTF-8"?>
<svg width="86px" height="82px" viewBox="0 0 86 82" version="1.1" xmlns="http://www.w3.org/2000/svg" xmlns:xlink="http://www.w3.org/1999/xlink">
    <!-- Generator: Sketch 51.1 (57501) - http://www.bohemiancoding.com/sketch -->
    <title>34227</title>
    <desc>Created with Sketch.</desc>
    <defs></defs>
    <g id="Page-1" stroke="none" stroke-width="1" fill="none" fill-rule="evenodd">
        <g id="-" transform="translate(-49.000000, -49.000000)" fill="#000000" fill-rule="nonzero">
            <g id="34227" transform="translate(49.000000, 49.000000)">
                <path d="M85.8238097,50.2634126 L85.8238097,81.9124272 L67.4289884,81.9124272 L67.4289884,52.3830728 C67.4289884,44.9650583 64.7683759,39.9025534 58.1100603,39.9025534 C53.0272807,39.9025534 50.0025151,43.3143107 48.6718097,46.6146117 C48.1865383,47.7944563 48.0616288,49.4366456 48.0616288,51.0881893 L48.0616288,81.9124272 L29.6606218,81.9124272 C29.6606218,81.9124272 29.9084455,31.8993932 29.6606218,26.7176699 L48.0598329,26.7176699 L48.0598329,34.5413058 C48.0225197,34.5998204 47.9740325,34.6629126 47.9389142,34.7196359 L48.0598329,34.7196359 L48.0598329,34.5413058 C50.504348,30.7858252 54.8699954,25.4209951 64.6416705,25.4209951 C76.748116,25.4207961 85.8238097,33.3097136 85.8238097,50.2634126 Z M10.4123852,0.111058252 C4.11742459,0.111058252 0,4.22956796 0,9.64554854 C0,14.9435049 3.99830162,19.1870049 10.1681531,19.1870049 L10.2910673,19.1870049 C16.7079443,19.1870049 20.6986636,14.944301 20.6986636,9.64554854 C20.5777448,4.22956796 16.7079443,0.111058252 10.4123852,0.111058252 Z M1.09285847,81.9124272 L19.4868817,81.9124272 L19.4868817,26.7176699 L1.09285847,26.7176699 L1.09285847,81.9124272 Z" id="LinkedIn"></path>
            </g>
        </g>
    </g>
</svg>