<?xml version="1.0" encoding="UTF-8"?>
<svg width="83px" height="82px" viewBox="0 0 83 82" version="1.1" xmlns="http://www.w3.org/2000/svg" xmlns:xlink="http://www.w3.org/1999/xlink">
    <!-- Generator: Sketch 51.1 (57501) - http://www.bohemiancoding.com/sketch -->
    <title>220343</title>
    <desc>Created with Sketch.</desc>
    <defs></defs>
    <g id="Page-1" stroke="none" stroke-width="1" fill="none" fill-rule="evenodd">
        <g id="--copy" transform="translate(-63.000000, -47.000000)" fill="#000000" fill-rule="nonzero">
            <g id="220343" transform="translate(63.000000, 47.000000)">
                <path d="M11.1831579,0.0434404762 C8.14581092,0.0434404762 5.38448343,1.15418254 3.31352827,3.23672222 C1.10456335,5.45804365 0,8.23465476 0,11.1502103 C0,14.2045476 1.2425731,16.9813214 3.31352827,19.0638611 C5.38448343,21.1464008 8.28382066,22.3959246 11.0451481,22.2571429 C11.0451481,22.2571429 11.1831579,22.2571429 11.3213294,22.2571429 C14.0826569,22.2571429 16.7058129,21.1464008 18.776768,19.0638611 C20.8477232,16.9813214 22.0902963,14.2045476 22.0902963,11.1502103 C22.228306,8.23465476 20.9857329,5.45788095 18.9147778,3.37534127 C16.8438226,1.15401984 14.0824951,0.0434404762 11.1831579,0.0434404762 Z M16.8438226,17.1202659 C15.3250682,18.6475159 13.2541131,19.6193135 11.0451481,19.4805317 C8.97419298,19.4805317 6.76522807,18.6475159 5.24647368,17.1202659 C3.58970955,15.5930159 2.76132749,13.3716944 2.76132749,11.150373 C2.76132749,8.92905159 3.58970955,6.8465119 5.24647368,5.18048016 C6.76522807,3.65323016 8.83618324,2.82021429 11.1831579,2.82021429 C13.2541131,2.82021429 15.3250682,3.65323016 16.8438226,5.18048016 C18.5005867,6.8465119 19.3289688,8.92905159 19.3289688,11.150373 C19.3289688,13.3716944 18.5005867,15.5930159 16.8438226,17.1202659 Z" id="Shape"></path>
                <path d="M16.5676413,25.0339167 L5.38448343,25.0339167 C3.17551852,25.0339167 1.38058285,26.8387302 1.38058285,29.198996 L1.38058285,77.7916429 C1.38058285,80.0129643 3.31352827,81.9567222 5.52249318,81.9567222 L16.5676413,81.9567222 C18.7766062,81.9567222 20.7095517,80.0129643 20.7095517,77.9304246 L20.7095517,29.198996 C20.7095517,26.9775119 18.7766062,25.0339167 16.5676413,25.0339167 Z M17.9482242,77.9304246 C17.9482242,78.6246587 17.2578519,79.1799484 16.5676413,79.1799484 L5.52249318,79.1799484 C4.83212086,79.1799484 4.14191033,78.4857143 4.14191033,77.7916429 L4.14191033,29.198996 C4.14191033,28.5047619 4.69411111,27.8106905 5.38448343,27.8106905 L16.5676413,27.8106905 C17.2580136,27.8106905 17.9482242,28.5049246 17.9482242,29.198996 L17.9482242,77.9304246 Z" id="Shape"></path>
                <path d="M63.5092378,23.6454484 L60.6099006,23.6454484 C55.2254172,23.6454484 50.117115,26.0057143 46.8035867,29.7542857 L46.8035867,27.8105278 C46.8035867,26.4222222 45.4230039,25.033754 44.0422593,25.033754 L30.2359454,25.033754 C28.9933723,25.033754 27.4746179,26.144496 27.4746179,27.6715833 L27.4746179,79.4573492 C27.4746179,80.9845992 28.9933723,81.9563968 30.2359454,81.9563968 L45.4230039,81.9563968 C46.665577,81.9563968 48.1843314,80.9845992 48.1843314,79.4573492 L48.1843314,49.4687778 C48.1843314,44.8871905 51.4978596,41.2774008 55.7777797,41.2774008 C57.9867446,41.2774008 60.0576998,42.1104167 61.5764542,43.6376667 C62.957037,44.8871905 63.5093996,46.8309484 63.5093996,49.329996 L63.5093996,79.1797857 C63.5093996,80.5680913 64.8899825,81.9565595 66.2707271,81.9565595 L80.0770409,81.9565595 C81.4576238,81.9565595 82.8383684,80.568254 82.8383684,79.1797857 L82.8383684,43.3601032 C82.8382066,32.2533333 74.4163762,23.6454484 63.5092378,23.6454484 Z M80.0768791,79.041004 L79.9388694,79.1797857 L66.408575,79.1797857 L66.2705653,49.3301587 C66.2705653,45.9980952 65.4421832,43.4990476 63.6474094,41.6942341 C61.5764542,39.6116944 58.8151267,38.5009524 55.9157895,38.5009524 C50.117115,38.6397341 45.5610136,43.3602659 45.5610136,49.4689405 L45.5610136,79.1797857 L30.3739552,79.1797857 L30.3739552,27.8105278 L44.0422593,27.8105278 L44.180269,27.9493095 L44.180269,36.6959762 L47.9079883,32.9474048 L48.0459981,32.808623 C50.8073255,28.9212698 55.6394464,26.4222222 60.7479103,26.4222222 L63.6472476,26.4222222 C72.89746,26.4222222 80.0768791,33.9193651 80.0768791,43.3602659 L80.0768791,79.041004 Z" id="Shape"></path>
            </g>
        </g>
    </g>
</svg>