<?xml version="1.0" encoding="UTF-8"?>
<svg width="83px" height="83px" viewBox="0 0 83 83" version="1.1" xmlns="http://www.w3.org/2000/svg" xmlns:xlink="http://www.w3.org/1999/xlink">
    <!-- Generator: Sketch 51.1 (57501) - http://www.bohemiancoding.com/sketch -->
    <title>Group 5</title>
    <desc>Created with Sketch.</desc>
    <defs></defs>
    <g id="Page-1" stroke="none" stroke-width="1" fill="none" fill-rule="evenodd">
        <g id="--copy" transform="translate(-63.000000, -47.000000)" fill-rule="nonzero">
            <g id="Group-5" transform="translate(63.000000, 47.000000)">
                <g id="220343" transform="translate(26.000000, 27.000000)" fill="#333333">
                    <path d="M4.16166512,0 C3.03135639,0 2.00376469,0.406079332 1.23308596,1.1674409 C0.411048723,1.97954009 0,2.9946492 0,4.0605554 C0,5.17719921 0.462407235,6.1923678 1.23308596,6.95372937 C2.00376469,7.71509095 3.0827149,8.17190789 4.1103066,8.12117028 C4.1103066,8.12117028 4.16166512,8.12117028 4.21308384,8.12117028 C5.24067554,8.12117028 6.21684852,7.71509095 6.98752725,6.95372937 C7.75820597,6.1923678 8.22061321,5.17719921 8.22061321,4.0605554 C8.27197172,2.9946492 7.80956449,1.97948061 7.03888576,1.21811903 C6.26820704,0.406019851 5.24061533,0 4.16166512,0 Z M6.26820704,6.24316489 C5.70302257,6.80151654 4.93234384,7.15679878 4.1103066,7.10606117 C3.33962788,7.10606117 2.51759064,6.80151654 1.95240617,6.24316489 C1.33586319,5.68481325 1.0275917,4.87271406 1.0275917,4.06061488 C1.0275917,3.2485157 1.33586319,2.48715412 1.95240617,1.87806487 C2.51759064,1.31971322 3.28826937,1.01516859 4.16166512,1.01516859 C4.93234384,1.01516859 5.70302257,1.31971322 6.26820704,1.87806487 C6.88475002,2.48715412 7.19302151,3.2485157 7.19302151,4.06061488 C7.19302151,4.87271406 6.88475002,5.68481325 6.26820704,6.24316489 Z" id="Shape"></path>
                    <path d="M6.10058725,9.375 L2.07421365,9.375 C1.27890001,9.375 0.632653061,10.0289431 0.632653061,10.8841449 L0.632653061,28.4908551 C0.632653061,29.2957127 1.3285889,30 2.12390254,30 L6.10058725,30 C6.89590089,30 7.59183673,29.2957127 7.59183673,28.5411403 L7.59183673,10.8841449 C7.59183673,10.0792283 6.89590089,9.375 6.10058725,9.375 Z M6.597651,28.5411403 C6.597651,28.7926841 6.34909,28.9938837 6.10058725,28.9938837 L2.12390254,28.9938837 C1.87534155,28.9938837 1.6268388,28.7423399 1.6268388,28.4908551 L1.6268388,10.8841449 C1.6268388,10.6326011 1.82565265,10.3811163 2.07421365,10.3811163 L6.10058725,10.3811163 C6.34914825,10.3811163 6.597651,10.6326601 6.597651,10.8841449 L6.597651,28.5411403 Z" id="Shape"></path>
                    <path d="M23.7110265,8.75 L22.6176927,8.75 C20.5872156,8.75 18.6608858,9.61013881 17.4113615,10.9762102 L17.4113615,10.2678571 C17.4113615,9.76192453 16.8907467,9.25593262 16.3700708,9.25593262 L11.1637396,9.25593262 C10.695168,9.25593262 10.122449,9.66071429 10.122449,10.2172224 L10.122449,29.0892264 C10.122449,29.6457938 10.695168,29.9999407 11.1637396,29.9999407 L16.8907467,29.9999407 C17.3593183,29.9999407 17.9320373,29.6457938 17.9320373,29.0892264 L17.9320373,18.160655 C17.9320373,16.4910121 19.1815617,15.1755162 20.7955103,15.1755162 C21.6285062,15.1755162 22.4094589,15.4790876 22.982178,16.035655 C23.5027928,16.4910121 23.7110875,17.1993652 23.7110875,18.1100795 L23.7110875,28.9880755 C23.7110875,29.4940081 24.2317023,30 24.7523782,30 L29.9587094,30 C30.4793242,30 31,29.4940674 31,28.9880755 L31,15.934504 C30.999939,11.8869245 27.8240849,8.75 23.7110265,8.75 Z M29.9586483,28.9375 L29.9066052,28.9880755 L24.8043603,28.9880755 L24.7523171,18.1101388 C24.7523171,16.8958531 24.439936,15.9851388 23.7631307,15.3274205 C22.982178,14.5684919 21.9408873,14.1637102 20.8475535,14.1637102 C18.6608858,14.2142857 16.9427898,15.9345633 16.9427898,18.1607143 L16.9427898,28.9880755 L11.2157828,28.9880755 L11.2157828,10.2678571 L16.3700708,10.2678571 L16.422114,10.3184326 L16.422114,13.5059326 L17.8278289,12.1398612 L17.8798721,12.0892857 C18.9211627,10.6726388 20.7433451,9.76192453 22.6697359,9.76192453 L23.7630697,9.76192453 C27.2513049,9.76192453 29.9586483,12.4940674 29.9586483,15.9345633 L29.9586483,28.9375 Z" id="Shape"></path>
                </g>
                <rect id="Rectangle-2" stroke="#333333" stroke-width="1.5" x="0.75" y="0.75" width="81.5" height="81.5" rx="2"></rect>
            </g>
        </g>
    </g>
</svg>