<?xml version="1.0" encoding="UTF-8"?>
<svg width="94px" height="67px" viewBox="0 0 94 67" version="1.1" xmlns="http://www.w3.org/2000/svg" xmlns:xlink="http://www.w3.org/1999/xlink">
    <!-- Generator: Sketch 51.1 (57501) - http://www.bohemiancoding.com/sketch -->
    <title>131155</title>
    <desc>Created with Sketch.</desc>
    <defs></defs>
    <g id="Page-1" stroke="none" stroke-width="1" fill="none" fill-rule="evenodd">
        <g id="--copy" transform="translate(-454.000000, -62.000000)" fill="#000000" fill-rule="nonzero">
            <g id="131155" transform="translate(454.000000, 62.000000)">
                <g id="Group" transform="translate(15.000000, 32.000000)">
                    <path d="M60.327,19.53 C59.958,19.53 59.589,19.395 59.301,19.122 L42.039,2.928 C41.436,2.364 41.406,1.413 41.973,0.81 C42.54,0.201 43.485,0.174 44.094,0.744 L61.356,16.938 C61.959,17.502 61.989,18.453 61.422,19.056 C61.125,19.371 60.729,19.53 60.327,19.53 Z" id="Shape"></path>
                    <path d="M2.706,19.53 C2.307,19.53 1.908,19.371 1.611,19.056 C1.044,18.453 1.074,17.502 1.677,16.938 L18.945,0.744 C19.551,0.18 20.502,0.204 21.066,0.81 C21.633,1.413 21.603,2.364 21,2.928 L3.732,19.122 C3.444,19.395 3.075,19.53 2.706,19.53 Z" id="Shape"></path>
                </g>
                <path d="M85.536,66.587 L7.5,66.587 C3.366,66.587 0,63.224 0,59.087 L0,7.946 C0,3.809 3.366,0.446 7.5,0.446 L85.536,0.446 C89.67,0.446 93.036,3.809 93.036,7.946 L93.036,59.087 C93.036,63.224 89.67,66.587 85.536,66.587 Z M7.5,3.446 C5.019,3.446 3,5.465 3,7.946 L3,59.087 C3,61.568 5.019,63.587 7.5,63.587 L85.536,63.587 C88.017,63.587 90.036,61.568 90.036,59.087 L90.036,7.946 C90.036,5.465 88.017,3.446 85.536,3.446 L7.5,3.446 Z" id="Shape"></path>
                <path d="M46.518,41.054 C44.523,41.054 42.528,40.391 41.01,39.068 L2.49,5.465 C1.866,4.922 1.8,3.974 2.343,3.347 C2.892,2.723 3.837,2.666 4.461,3.203 L42.981,36.803 C44.898,38.474 48.138,38.474 50.052,36.803 L88.524,3.257 C89.145,2.714 90.09,2.774 90.642,3.401 C91.185,4.028 91.122,4.973 90.498,5.519 L52.026,39.065 C50.505,40.391 48.513,41.054 46.518,41.054 Z" id="Shape"></path>
            </g>
        </g>
    </g>
</svg>