<?xml version="1.0" encoding="UTF-8"?>
<svg width="83px" height="83px" viewBox="0 0 83 83" version="1.1" xmlns="http://www.w3.org/2000/svg" xmlns:xlink="http://www.w3.org/1999/xlink">
    <!-- Generator: Sketch 51.1 (57501) - http://www.bohemiancoding.com/sketch -->
    <title>Group 2 Copy</title>
    <desc>Created with Sketch.</desc>
    <defs></defs>
    <g id="Page-1" stroke="none" stroke-width="1" fill="none" fill-rule="evenodd">
        <g id="-" transform="translate(-410.000000, -47.000000)" fill-rule="nonzero">
            <g id="Group-2-Copy" transform="translate(410.000000, 47.000000)">
                <rect id="Rectangle-2-Copy-3" fill="#000000" x="0" y="0" width="83" height="83" rx="2"></rect>
                <g id="131155" transform="translate(24.000000, 29.000000)" fill="#FFFFFF">
                    <g id="Group" transform="translate(5.744681, 12.417910)">
                        <path d="M23.1039574,7.57880597 C22.9626383,7.57880597 22.8213191,7.52641791 22.7110213,7.42047761 L16.1000426,1.13623881 C15.8691064,0.917373134 15.857617,0.548328358 16.074766,0.314328358 C16.2919149,0.078 16.6538298,0.0675223881 16.8870638,0.288716418 L23.4980426,6.57295522 C23.7289787,6.7918209 23.7404681,7.16086567 23.5233191,7.39486567 C23.4095745,7.51710448 23.2579149,7.57880597 23.1039574,7.57880597 Z" id="Shape"></path>
                        <path d="M1.03634043,7.57880597 C0.883531915,7.57880597 0.730723404,7.51710448 0.616978723,7.39486567 C0.399829787,7.16086567 0.411319149,6.7918209 0.642255319,6.57295522 L7.25553191,0.288716418 C7.48761702,0.0698507463 7.85182979,0.0791641791 8.06782979,0.314328358 C8.28497872,0.548328358 8.27348936,0.917373134 8.04255319,1.13623881 L1.4292766,7.42047761 C1.31897872,7.52641791 1.17765957,7.57880597 1.03634043,7.57880597 Z" id="Shape"></path>
                    </g>
                    <path d="M32.7584681,25.8397313 L2.87234043,25.8397313 C1.28910638,25.8397313 0,24.5346866 0,22.9292836 L0,3.08352239 C0,1.4781194 1.28910638,0.173074627 2.87234043,0.173074627 L32.7584681,0.173074627 C34.3417021,0.173074627 35.6308085,1.4781194 35.6308085,3.08352239 L35.6308085,22.9292836 C35.6308085,24.5346866 34.3417021,25.8397313 32.7584681,25.8397313 Z M2.87234043,1.33725373 C1.92217021,1.33725373 1.14893617,2.12074627 1.14893617,3.08352239 L1.14893617,22.9292836 C1.14893617,23.8920597 1.92217021,24.6755522 2.87234043,24.6755522 L32.7584681,24.6755522 C33.7086383,24.6755522 34.4818723,23.8920597 34.4818723,22.9292836 L34.4818723,3.08352239 C34.4818723,2.12074627 33.7086383,1.33725373 32.7584681,1.33725373 L2.87234043,1.33725373 Z" id="Shape"></path>
                    <path d="M17.8154043,15.931403 C17.0513617,15.931403 16.2873191,15.6741194 15.7059574,15.1607164 L0.953617021,2.12074627 C0.714638298,1.91002985 0.689361702,1.54214925 0.897319149,1.29883582 C1.10757447,1.05668657 1.46948936,1.03456716 1.70846809,1.24295522 L16.4608085,14.2817612 C17.1949787,14.930209 18.4358298,14.930209 19.1688511,14.2817612 L33.9028085,1.26391045 C34.1406383,1.05319403 34.5025532,1.07647761 34.7139574,1.31979104 C34.9219149,1.56310448 34.8977872,1.9298209 34.6588085,2.14170149 L19.9248511,15.1595522 C19.3423404,15.6741194 18.5794468,15.931403 17.8154043,15.931403 Z" id="Shape"></path>
                </g>
            </g>
        </g>
    </g>
</svg>