<?xml version="1.0" encoding="UTF-8"?>
<svg width="86px" height="61px" viewBox="0 0 86 61" version="1.1" xmlns="http://www.w3.org/2000/svg" xmlns:xlink="http://www.w3.org/1999/xlink">
    <!-- Generator: Sketch 51.1 (57501) - http://www.bohemiancoding.com/sketch -->
    <title>134141</title>
    <desc>Created with Sketch.</desc>
    <defs></defs>
    <g id="Page-1" stroke="none" stroke-width="1" fill="none" fill-rule="evenodd">
        <g id="--copy" transform="translate(-325.000000, -68.000000)" fill="#000000" fill-rule="nonzero">
            <g id="134141" transform="translate(325.000000, 68.000000)">
                <path d="M45.0098328,60.7511909 C45.0080358,60.7511909 45.0098328,60.7511909 45.0098328,60.7511909 C35.241003,60.7511909 24.6057552,60.4469502 13.4016239,59.8516307 C6.78244776,59.4937303 1.64786269,54.4623693 0.916991045,47.613917 C-0.305492537,36.1732531 -0.305492537,24.623751 0.916991045,13.2855975 C1.64632239,6.49409544 6.77397612,1.46273444 13.3867343,1.05269295 C32.7100358,-0.146298755 52.5927224,-0.146298755 72.511606,1.05269295 C79.2018925,1.45286307 84.2142806,6.36551452 84.9880239,13.2790166 C86.2071701,24.2250996 86.2089672,35.773083 84.9895642,47.6091079 C84.2851343,54.452751 79.2776239,59.3717303 72.5298328,59.8485934 C64.0379104,60.4469502 54.7786627,60.7511909 45.0098328,60.7511909 Z M42.7248,3.40486307 C32.9872896,3.40486307 23.1853433,3.70733195 13.5913373,4.30113278 C8.53787463,4.61347303 4.7628597,8.36307469 4.19705672,13.6285643 C2.99921791,24.738917 2.99921791,36.0575809 4.19705672,47.2737344 C4.7628597,52.5817469 8.53299701,56.3295768 13.5782448,56.6029378 C24.7230746,57.1949668 35.2987642,57.4976888 45.0067522,57.4976888 C54.6980537,57.4976888 63.8779761,57.1967386 72.2923701,56.6047095 C77.3838269,56.2435187 81.1670567,52.4972075 81.7033373,47.2803154 C82.9011761,35.6720913 82.9011761,24.3534274 81.7048776,13.6351452 C81.1159701,8.35320332 77.3394149,4.60208299 72.310597,4.30113278 C62.4193134,3.70581328 52.4638507,3.40486307 42.7248,3.40486307 Z M31.7355071,20.0670373 L31.7355071,39.0658297 C31.7355071,40.7558211 33.1055158,42.1258297 34.7955071,42.1258297 C35.2786987,42.1258297 35.7550221,42.0114036 36.1854871,41.7919177 L54.6898036,32.356922 C56.1953804,31.5892573 56.7935764,29.7464309 56.0259117,28.2408541 C55.7352604,27.6708164 55.2732278,27.2062315 54.7047999,26.9124444 L36.2004834,17.3486477 C34.6991583,16.5727008 32.8530645,17.1607359 32.0771176,18.662061 C31.8526472,19.0963729 31.7355071,19.578147 31.7355071,20.0670373 Z" id="Shape"></path>
            </g>
        </g>
    </g>
</svg>