<?xml version="1.0" encoding="UTF-8"?>
<svg width="83px" height="83px" viewBox="0 0 83 83" version="1.1" xmlns="http://www.w3.org/2000/svg" xmlns:xlink="http://www.w3.org/1999/xlink">
    <!-- Generator: Sketch 51.1 (57501) - http://www.bohemiancoding.com/sketch -->
    <title>Group 3</title>
    <desc>Created with Sketch.</desc>
    <defs></defs>
    <g id="Page-1" stroke="none" stroke-width="1" fill="none" fill-rule="evenodd">
        <g id="--copy" transform="translate(-303.000000, -47.000000)" fill-rule="nonzero">
            <g id="Group-3" transform="translate(303.000000, 47.000000)">
                <g id="134141" transform="translate(23.000000, 29.000000)" fill="#000000">
                    <path d="M19.3646955,25.8939502 C19.3639224,25.8939502 19.3646955,25.8939502 19.3646955,25.8939502 C15.1618269,25.8939502 10.586197,25.7642739 5.76581493,25.5105311 C2.91802985,25.3579834 0.708964179,23.2134689 0.394519403,20.2944564 C-0.131432836,15.4181079 -0.131432836,10.4953693 0.394519403,5.66271369 C0.708301493,2.7679751 2.91438507,0.623460581 5.75940896,0.448688797 C14.0729224,-0.0623568465 22.6271015,-0.0623568465 31.1968537,0.448688797 C34.0752328,0.619253112 36.2317254,2.71317012 36.5646149,5.65990871 C37.0891313,10.3254523 37.0899045,15.2475436 36.5652776,20.2924066 C36.262209,23.2093693 34.1078149,25.3059834 31.2046955,25.5092365 C27.551194,25.7642739 23.5675642,25.8939502 19.3646955,25.8939502 Z M18.3816,1.45125311 C14.192206,1.45125311 9.97508955,1.58017427 5.84743582,1.83326971 C3.67327164,1.96639834 2.04913731,3.56458921 1.80571045,5.80889627 C1.29036119,10.5444564 1.29036119,15.368805 1.80571045,20.1494606 C2.04913731,22.4118921 3.67117313,24.0093278 5.84180299,24.1258423 C10.6366716,24.3781826 15.1866776,24.5072116 19.3633701,24.5072116 C23.5328836,24.5072116 27.4823851,24.3789378 31.1025313,24.1265975 C33.2930418,23.9726473 34.9207104,22.3758589 35.1514358,20.1522656 C35.6667851,15.2044979 35.6667851,10.3801494 35.1520985,5.81170124 C34.8987313,3.56038174 33.2739343,1.96154357 31.1103731,1.83326971 C26.8548209,1.57952697 22.5716567,1.45125311 18.3816,1.45125311 Z M13.6536484,8.55038053 L13.6536484,16.6536779 C13.6536484,17.3761492 14.2393271,17.9618279 14.9617984,17.9618279 C15.1666949,17.9618279 15.3687265,17.9136971 15.5516142,17.8213139 L23.518133,13.7971331 C24.1630005,13.4713868 24.4216994,12.6845489 24.0959532,12.0396813 C23.9710936,11.7925015 23.7710133,11.591322 23.5245212,11.46511 L15.5580024,7.38599348 C14.9149292,7.0567191 14.1266857,7.31110331 13.7974114,7.95417652 C13.7029235,8.13871148 13.6536484,8.34306166 13.6536484,8.55038053 Z" id="Shape"></path>
                </g>
                <rect id="Rectangle-2-Copy-2" stroke="#333333" stroke-width="1.5" x="0.75" y="0.75" width="81.5" height="81.5" rx="2"></rect>
            </g>
        </g>
    </g>
</svg>