<?xml version="1.0" encoding="UTF-8"?>
<svg width="87px" height="62px" viewBox="0 0 87 62" version="1.1" xmlns="http://www.w3.org/2000/svg" xmlns:xlink="http://www.w3.org/1999/xlink">
    <!-- Generator: Sketch 51.1 (57501) - http://www.bohemiancoding.com/sketch -->
    <title>152810</title>
    <desc>Created with Sketch.</desc>
    <defs></defs>
    <g id="Page-1" stroke="none" stroke-width="1" fill="none" fill-rule="evenodd">
        <g id="-" transform="translate(-324.000000, -69.000000)" fill="#000000" fill-rule="nonzero">
            <g id="152810" transform="translate(324.000000, 69.000000)">
                <path d="M83.6089645,5.53631818 C80.4685452,1.78757273 74.6704161,0.258427273 63.5972806,0.258427273 L23.4018774,0.258427273 C12.0753194,0.258427273 6.17896452,1.88620909 3.05033226,5.87731818 C0,9.76866364 0,15.5022545 0,23.4376909 L0,38.5625909 C0,53.9360545 3.6192,61.7415727 23.4018774,61.7415727 L63.5975613,61.7415727 C73.2001161,61.7415727 78.5211484,60.3922273 81.9635419,57.0839636 C85.4937774,53.6914364 87,48.1523 87,38.5625909 L87,23.4376909 C87,15.0691 86.7639774,9.30169091 83.6089645,5.53631818 Z M55.8542806,33.0882727 L37.6016806,42.6675545 C37.1936226,42.8817364 36.7473968,42.9879818 36.3017323,42.9879818 C35.7971323,42.9879818 35.2936548,42.8515818 34.8477097,42.5804727 C34.0080194,42.0695364 33.4952806,41.1556 33.4952806,40.1698 L33.4952806,21.0726727 C33.4952806,20.0885636 34.0066161,19.1754727 34.8446226,18.6642545 C35.6829097,18.1530364 36.7255065,18.1180909 37.5952258,18.5718182 L55.8478258,28.0893818 C56.7764806,28.5735455 57.3596613,29.5362364 57.3610645,30.5865727 C57.3621871,31.6377545 56.7815323,32.6018545 55.8542806,33.0882727 Z" id="XMLID_823_"></path>
            </g>
        </g>
    </g>
</svg>