<?xml version="1.0" encoding="UTF-8"?>
<svg width="83px" height="83px" viewBox="0 0 83 83" version="1.1" xmlns="http://www.w3.org/2000/svg" xmlns:xlink="http://www.w3.org/1999/xlink">
    <!-- Generator: Sketch 51.1 (57501) - http://www.bohemiancoding.com/sketch -->
    <title>Group 7</title>
    <desc>Created with Sketch.</desc>
    <defs>
        <path d="M35.5578355,2.23191515 C34.2222548,0.646645215 31.7563839,0 27.0471194,0 L9.95252258,0 C5.13548065,0 2.62783548,0.688356573 1.29726774,2.37611727 C0,4.02168991 0,6.44631152 0,9.80204982 L0,16.1980694 C0,22.6992015 1.5392,26 9.95252258,26 L27.0472387,26 C31.1310839,26 33.3940516,25.4293886 34.8580581,24.0303897 C36.3594226,22.5957574 37,20.2533667 37,16.1980694 L37,9.80204982 C37,6.26313908 36.8996226,3.82421642 35.5578355,2.23191515 Z M23.7541194,13.883089 L15.9915194,17.9339769 C15.8179774,18.0245501 15.6282032,18.0694792 15.4386677,18.0694792 C15.2240677,18.0694792 15.0099452,18.0117984 14.8202903,17.8971517 C14.4631806,17.6810869 14.2451194,17.2946014 14.2451194,16.8777261 L14.2451194,8.80193064 C14.2451194,8.38577047 14.4625839,7.99964247 14.8189774,7.78345847 C15.1754903,7.56727446 15.6188935,7.55249672 15.9887742,7.74436897 L23.7513742,11.7691574 C24.1463194,11.9739006 24.3943387,12.3810035 24.3949355,12.8251698 C24.3954129,13.2696937 24.1484677,13.6773924 23.7541194,13.883089 Z" id="path-1"></path>
    </defs>
    <g id="Page-1" stroke="none" stroke-width="1" fill="none" fill-rule="evenodd">
        <g id="-" transform="translate(-290.000000, -47.000000)">
            <g id="Group-7" transform="translate(290.000000, 47.000000)">
                <rect id="Rectangle-2-Copy-2" fill="#000000" fill-rule="nonzero" x="0" y="0" width="83" height="83" rx="2"></rect>
                <g id="152810" transform="translate(23.000000, 29.000000)">
                    <mask id="mask-2" fill="white">
                        <use xlink:href="#path-1"></use>
                    </mask>
                    <use id="XMLID_823_" fill="#FFFFFF" fill-rule="nonzero" xlink:href="#path-1"></use>
                </g>
            </g>
        </g>
    </g>
</svg>